<?xml version="1.0" standalone="no"?>
<!DOCTYPE svg PUBLIC "-//W3C//DTD SVG 20010904//EN"
 "http://www.w3.org/TR/2001/REC-SVG-20010904/DTD/svg10.dtd">
<svg version="1.0" xmlns="http://www.w3.org/2000/svg"
 width="512.000000pt" height="512.000000pt" viewBox="0 0 512.000000 512.000000"
 preserveAspectRatio="xMidYMid meet">
<metadata>
Created by potrace 1.14, written by Peter Selinger 2001-2017
</metadata>
<g transform="translate(0.000000,512.000000) scale(0.100000,-0.100000)"
fill="#000000" stroke="none">
<path d="M630 5109 c0 -6 8 -23 18 -37 25 -37 92 -163 273 -517 151 -297 169
-332 205 -410 26 -56 64 -110 76 -107 5 1 6 -3 2 -9 -3 -6 -3 -14 2 -18 5 -3
14 -19 19 -35 15 -45 30 -32 30 24 0 48 16 77 36 64 17 -10 -4 53 -24 76 -13
14 -15 19 -4 11 14 -11 17 -11 17 2 0 9 4 19 10 22 6 4 7 -2 1 -18 -7 -17 -6
-24 4 -24 8 0 11 7 7 15 -3 9 -1 13 5 9 12 -8 12 11 0 31 -5 6 -5 12 0 12 4 0
5 87 1 192 -6 162 -12 206 -32 273 -31 103 -38 132 -42 175 -7 73 -35 264 -40
272 -8 13 -564 10 -564 -3z m629 -983 c15 -16 19 -26 12 -31 -7 -3 -10 -1 -9
6 2 7 -3 13 -11 14 -8 0 -15 8 -17 18 -3 22 -2 22 25 -7z m-22 -108 c2 -17 0
-19 -7 -8 -5 8 -6 18 -4 22 8 12 10 10 11 -14z m13 -56 c0 -15 -2 -15 -10 -2
-13 20 -13 33 0 25 6 -3 10 -14 10 -23z"/>
<path d="M3790 5118 c-2 -8 -10 -115 -14 -188 -15 -230 -68 -456 -138 -580
l-31 -55 12 -115 c7 -63 15 -137 17 -165 3 -27 9 -79 15 -115 6 -36 13 -81 15
-100 3 -19 9 -37 14 -38 6 -2 8 -8 5 -13 -4 -5 1 -6 9 -3 9 3 17 -3 21 -16 6
-20 7 -21 20 -3 13 16 14 16 8 -7 -3 -14 -3 -23 0 -20 6 5 120 296 252 640 43
113 127 327 187 475 60 149 112 278 115 288 5 16 -11 17 -251 17 -141 0 -256
-1 -256 -2z m-27 -1353 c-3 -9 -8 -14 -10 -11 -3 3 -2 9 2 15 9 16 15 13 8 -4z"/>
<path d="M180 4546 c0 -16 37 -106 123 -296 135 -301 161 -355 196 -415 10
-16 17 -33 15 -36 -2 -3 12 -12 31 -21 19 -8 32 -12 30 -8 -3 4 2 13 10 20 8
7 15 17 15 23 0 6 -6 3 -13 -8 -11 -14 -16 -15 -22 -5 -5 8 -4 11 2 7 6 -4 13
-1 16 7 5 12 25 14 47 6 3 -1 9 -2 13 -1 5 1 6 -2 4 -6 -3 -5 12 -8 32 -8 28
0 37 4 38 17 2 21 -19 19 -29 -2 -4 -9 -6 -5 -5 12 1 21 4 24 14 16 7 -6 13
-7 13 -3 0 4 6 2 13 -4 14 -11 27 -5 27 13 0 6 -5 4 -10 -4 -6 -9 -10 -10 -10
-3 0 6 5 15 10 18 6 4 8 11 5 16 -10 15 2 10 16 -8 12 -14 12 -16 0 -8 -10 5
-12 4 -7 -4 4 -6 12 -9 17 -5 5 3 7 9 4 14 -7 11 24 42 36 34 5 -3 6 -10 3
-16 -4 -7 -2 -8 5 -4 9 6 9 11 1 21 -8 9 -8 15 0 20 5 3 13 -1 16 -9 3 -9 15
-16 25 -16 14 0 4 15 -38 55 -32 30 -64 53 -71 50 -7 -3 -10 0 -7 5 4 6 -20
37 -52 70 -50 52 -59 57 -65 41 -9 -25 -43 -21 -43 5 0 10 3 24 7 29 4 6 -62
77 -155 165 -89 85 -179 174 -201 198 -41 44 -56 52 -56 28z m201 -340 c1 -12
2 -29 2 -38 0 -10 3 -15 7 -13 5 3 7 20 4 38 l-3 32 12 -32 c6 -17 16 -35 21
-40 5 -5 6 0 1 12 -4 11 -8 27 -10 35 -1 8 0 9 2 2 3 -7 9 -10 14 -7 5 3 6 -2
2 -11 -4 -12 -3 -15 5 -10 8 5 10 1 5 -10 -4 -12 -3 -15 5 -10 8 5 10 1 5 -10
-4 -11 -3 -15 4 -11 7 5 10 -1 7 -15 -2 -13 -1 -17 2 -10 4 10 12 4 25 -18 11
-17 24 -28 29 -25 6 4 7 11 4 17 -4 7 -2 8 5 4 8 -5 10 0 7 18 -3 15 -1 24 5
21 5 -4 9 1 9 9 0 9 5 16 11 16 5 0 7 5 4 10 -3 6 -2 10 4 10 5 0 9 -12 7 -27
-1 -16 2 -34 7 -41 12 -15 -20 -55 -36 -45 -6 4 -7 1 -2 -7 6 -9 4 -11 -5 -5
-9 6 -11 4 -5 -6 7 -11 5 -11 -10 1 -17 13 -18 13 -10 0 8 -13 7 -13 -10 0
-10 8 -21 14 -24 13 -3 -2 -6 3 -6 10 -1 6 -6 11 -13 10 -7 -2 -9 4 -6 15 5
14 4 15 -5 2 -9 -12 -10 -9 -6 15 4 23 3 25 -3 10 l-9 -20 -6 20 c-3 11 -4 3
-2 -19 4 -35 15 -65 15 -37 0 7 5 9 10 6 7 -4 7 -12 2 -18 -4 -7 -5 -25 -1
-42 l7 -30 1 28 c0 16 5 26 10 23 4 -3 7 -21 6 -39 -4 -40 9 -68 18 -42 4 9 3
13 -3 10 -13 -8 -13 5 0 25 11 17 12 12 14 -45 1 -19 6 -29 15 -27 7 1 10 -2
7 -7 -7 -11 20 -9 31 2 10 10 13 38 4 32 -4 -2 -7 8 -5 23 1 15 2 38 3 51 1
13 4 21 8 18 3 -4 12 -2 20 5 11 8 12 7 7 -6 -3 -9 -10 -16 -15 -16 -5 0 -7
-22 -6 -50 4 -57 -1 -69 -33 -75 -16 -3 -30 4 -47 23 -28 32 -53 79 -53 99 0
8 -14 40 -31 73 -17 33 -32 66 -33 74 -1 9 -5 18 -8 22 -4 3 -4 13 -1 22 4 9
2 13 -4 9 -5 -3 -10 0 -10 7 0 22 27 14 28 -8z m265 -130 c-1 -46 -13 -49 -21
-6 -4 19 9 50 20 50 1 0 2 -20 1 -44z m-32 -2 c2 -11 6 -25 8 -33 1 -7 -3 -16
-11 -19 -8 -2 -11 0 -7 6 3 6 2 13 -3 16 -5 4 -12 2 -16 -4 -4 -6 -11 -8 -16
-5 -12 8 -18 -9 -23 -63 -2 -23 0 -45 5 -48 5 -3 7 -10 3 -15 -4 -6 -10 -6
-18 0 -7 6 -16 8 -19 5 -4 -4 -4 4 -2 17 7 33 -15 85 -27 67 -8 -10 -9 -9 -5
4 6 19 -15 42 -28 30 -5 -4 -5 -1 -1 6 6 10 11 10 22 1 8 -6 14 -8 14 -4 0 4
6 2 13 -4 8 -6 17 -7 22 -3 4 4 5 -8 3 -26 -3 -18 -2 -35 2 -37 3 -2 7 10 8
27 2 18 16 46 35 68 35 40 36 41 41 14z m172 -125 c1 -8 2 -18 3 -23 0 -6 8
-1 16 10 8 10 15 14 15 7 0 -6 -15 -22 -32 -34 -18 -12 -30 -19 -26 -14 4 4 2
15 -5 24 -10 14 -10 14 4 3 14 -11 17 -9 17 13 0 20 -3 23 -13 15 -13 -11 -30
1 -19 13 10 10 39 0 40 -14z"/>
<path d="M396 4152 c-5 -9 9 -62 16 -62 2 0 3 13 3 29 0 32 -9 48 -19 33z"/>
<path d="M554 4123 c-4 -10 -6 -22 -5 -27 1 -5 -6 -18 -16 -30 -13 -15 -13
-17 -2 -8 9 6 18 10 21 7 3 -3 11 2 18 10 9 11 10 19 2 27 -6 6 -8 17 -5 24 8
20 -4 17 -13 -3z m10 -43 c-6 -6 -10 -3 -10 10 0 13 4 16 10 10 7 -7 7 -13 0
-20z"/>
<path d="M470 4092 c0 -6 5 -14 10 -17 6 -4 8 -10 6 -14 -3 -4 1 -8 9 -8 12 0
12 4 -2 21 -10 12 -19 23 -20 25 -2 2 -3 -1 -3 -7z"/>
<path d="M579 4053 c-12 -16 -12 -17 2 -6 9 7 20 9 24 5 5 -4 5 -1 1 6 -9 16
-11 15 -27 -5z"/>
<path d="M501 4013 c7 -12 15 -20 18 -17 3 2 -3 12 -13 22 -17 16 -18 16 -5
-5z"/>
<path d="M525 3941 c-3 -5 -2 -12 3 -15 5 -3 9 1 9 9 0 17 -3 19 -12 6z"/>
<path d="M4929 4543 c-8 -9 -57 -53 -110 -97 -124 -105 -434 -371 -523 -449
-38 -34 -81 -70 -95 -81 -21 -16 -121 -104 -217 -191 -6 -5 -49 -41 -96 -80
-76 -62 -83 -71 -65 -78 20 -7 41 8 31 24 -5 8 27 22 34 14 3 -3 0 -5 -7 -5
-7 0 -11 -6 -8 -14 3 -8 1 -17 -6 -19 -9 -4 -9 -7 0 -17 9 -10 9 -18 1 -34
-10 -18 -9 -19 4 -9 8 7 19 9 23 5 5 -4 5 1 2 11 -11 29 7 19 27 -16 10 -17
21 -27 23 -21 2 7 12 10 22 7 10 -3 21 0 25 5 3 5 -7 8 -23 7 -34 -3 -36 18
-4 40 18 13 22 13 27 0 3 -8 0 -15 -7 -15 -7 0 1 -7 17 -15 38 -20 46 -19 46
8 0 16 3 18 9 8 6 -9 10 -10 12 -2 3 8 10 8 24 -3 15 -11 17 -17 7 -28 -9 -12
-9 -15 3 -15 10 0 14 11 12 39 -2 31 -6 38 -23 38 -11 0 -21 6 -21 13 0 7 11
13 23 13 12 0 21 -3 19 -6 -3 -4 9 -7 25 -8 17 0 30 4 30 10 0 7 5 6 14 -1 10
-8 16 -9 21 -1 10 16 21 12 21 -10 0 -14 -5 -19 -16 -15 -33 14 -49 8 -43 -15
5 -19 6 -20 19 -3 10 13 16 15 22 6 4 -7 13 -9 21 -3 8 4 20 6 27 3 8 -3 11 2
7 16 -3 11 -9 19 -12 16 -4 -2 -8 3 -8 12 0 13 4 12 17 -5 10 -12 21 -18 25
-14 5 4 5 1 1 -6 -6 -9 -1 -11 18 -8 14 3 29 0 32 -6 4 -7 2 -8 -4 -4 -7 4
-12 2 -12 -3 0 -6 7 -11 15 -11 8 0 15 -4 15 -10 0 -5 6 -9 13 -7 6 1 11 -4 9
-11 -1 -8 2 -11 8 -7 6 3 8 10 5 15 -3 5 -1 12 5 15 6 4 9 3 8 -2 -2 -4 2 -8
7 -8 5 0 9 4 7 8 -1 5 2 6 8 2 6 -3 8 -11 5 -16 -4 -5 0 -9 7 -9 17 0 69 45
61 54 -3 3 0 6 8 6 8 0 21 17 28 38 8 20 27 66 44 102 103 227 228 516 318
735 16 39 36 82 45 98 17 30 14 36 -7 10z m-1014 -912 c-3 -6 -11 -11 -16 -11
-5 0 -4 6 3 14 14 16 24 13 13 -3z m70 -19 c-3 -3 -11 0 -18 7 -9 10 -8 11 6
5 10 -3 15 -9 12 -12z m169 -18 c4 -11 2 -12 -14 -4 -10 5 -30 10 -45 10 -14
0 -24 4 -21 8 8 13 74 1 80 -14z m-109 -26 c-4 -18 -11 -36 -18 -40 -11 -7
-27 8 -27 27 0 6 4 4 9 -4 7 -11 11 -8 17 10 4 13 7 27 6 32 -1 4 3 7 8 7 6 0
8 -13 5 -32z m-75 8 c0 -11 -19 -15 -25 -6 -3 5 1 10 9 10 9 0 16 -2 16 -4z
m410 -32 c0 -8 -19 -13 -24 -6 -3 5 1 9 9 9 8 0 15 -2 15 -3z m84 -12 c-5 -4
-12 -11 -15 -15 -3 -5 -9 -2 -12 5 -3 9 3 14 15 15 11 1 16 -1 12 -5z"/>
<path d="M605 4150 c-3 -5 -1 -10 4 -10 6 0 11 5 11 10 0 6 -2 10 -4 10 -3 0
-8 -4 -11 -10z"/>
<path d="M1270 4035 c8 -10 9 -15 2 -15 -7 0 -9 -7 -5 -17 6 -15 7 -14 13 3 8
22 2 44 -12 44 -6 0 -5 -6 2 -15z"/>
<path d="M1 3760 c1 -93 6 -167 10 -164 5 3 9 1 9 -5 0 -5 -6 -12 -12 -14 -7
-3 41 -6 107 -6 66 -1 172 -3 235 -6 71 -3 107 -2 95 4 -11 4 -23 7 -27 4 -5
-2 -8 5 -8 16 0 10 -4 21 -9 23 -8 3 -73 55 -110 88 -108 97 -104 94 -112 74
-7 -16 -8 -16 -8 6 -1 20 -3 22 -11 10 -8 -13 -10 -12 -10 3 0 9 6 17 12 17 7
0 -5 12 -27 27 -22 14 -42 29 -45 32 -14 17 -73 61 -81 61 -6 0 -9 -65 -8
-170z m32 -101 c3 7 4 7 3 -1 -2 -7 4 -22 13 -33 14 -17 14 -18 0 -7 -9 6 -20
8 -24 4 -5 -4 -5 -2 -1 5 3 6 2 14 -4 18 -5 3 -10 12 -10 18 0 8 3 7 9 -2 6
-9 10 -10 14 -2z m60 -16 c-3 -8 2 -11 16 -8 13 2 21 -1 21 -10 0 -7 2 -19 3
-27 2 -7 2 -9 -1 -4 -2 4 -9 2 -14 -5 -7 -10 -8 -8 -3 8 6 22 -7 26 -34 9 -9
-6 -12 -5 -8 1 4 6 0 16 -8 23 -22 18 -18 30 9 28 14 -1 22 -7 19 -15z"/>
<path d="M60 3646 c0 -2 7 -9 15 -16 13 -11 14 -10 9 4 -5 14 -24 23 -24 12z"/>
<path d="M4915 3769 c-104 -77 -212 -159 -240 -181 l-50 -41 35 6 c19 3 131 9
248 13 l212 7 0 168 c0 93 -3 169 -7 169 -5 0 -93 -64 -198 -141z"/>
<path d="M610 3811 c0 -5 5 -13 10 -16 6 -3 10 -2 10 4 0 5 -4 13 -10 16 -5 3
-10 2 -10 -4z"/>
<path d="M2598 3783 c7 -3 16 -2 19 1 4 3 -2 6 -13 5 -11 0 -14 -3 -6 -6z"/>
<path d="M2573 3705 c0 -8 3 -15 7 -15 11 0 -2 -53 -17 -68 -11 -11 -13 -10
-13 7 0 27 -17 35 -23 11 -3 -11 -1 -18 3 -15 5 3 10 0 12 -7 8 -24 37 -16 47
13 12 35 19 38 15 7 -1 -13 -3 -23 -4 -23 -11 0 -4 -48 9 -57 14 -11 14 -11 3
4 -9 11 -10 18 -2 23 5 3 10 16 10 28 0 18 2 19 10 7 5 -8 10 -10 10 -4 0 5
11 10 25 10 14 0 24 -5 22 -10 -2 -6 -13 -10 -23 -9 -10 1 -13 0 -6 -3 6 -3 9
-11 6 -16 -4 -6 -2 -8 3 -5 13 8 46 -27 36 -38 -5 -4 -2 -5 5 -1 11 6 9 13 -6
30 -18 18 -18 23 -6 34 18 16 10 32 -16 32 -10 0 -22 5 -25 10 -4 6 -9 9 -13
6 -4 -2 -16 6 -27 17 l-20 20 20 -7 c16 -5 15 -2 -5 14 -30 24 -37 25 -37 5z"/>
<path d="M2781 3646 c-6 -7 -8 -16 -4 -19 3 -4 1 -7 -5 -7 -6 0 -16 -9 -22
-20 -9 -16 -8 -18 5 -14 8 3 12 11 8 17 -4 6 0 8 11 4 9 -4 15 -3 11 2 -3 5 2
16 10 25 8 8 11 17 6 20 -5 3 -14 0 -20 -8z"/>
<path d="M2442 3620 c0 -14 2 -19 5 -12 2 6 2 18 0 25 -3 6 -5 1 -5 -13z"/>
<path d="M2480 3631 c0 -5 7 -11 15 -15 9 -3 15 0 15 9 0 8 -7 15 -15 15 -8 0
-15 -4 -15 -9z"/>
<path d="M2720 3624 c0 -8 5 -12 10 -9 6 4 8 11 5 16 -9 14 -15 11 -15 -7z"/>
<path d="M2831 3624 c5 -6 19 -10 29 -7 27 7 25 10 -10 15 -22 3 -27 2 -19 -8z"/>
<path d="M2408 3623 c7 -3 16 -2 19 1 4 3 -2 6 -13 5 -11 0 -14 -3 -6 -6z"/>
<path d="M2514 3599 c-3 -6 2 -18 12 -27 17 -16 17 -16 5 0 -7 9 -10 22 -6 28
3 5 4 10 1 10 -3 0 -8 -5 -12 -11z"/>
<path d="M3333 3603 c9 -2 25 -2 35 0 9 3 1 5 -18 5 -19 0 -27 -2 -17 -5z"/>
<path d="M2720 3580 c6 -11 13 -20 16 -20 2 0 0 9 -6 20 -6 11 -13 20 -16 20
-2 0 0 -9 6 -20z"/>
<path d="M3397 3579 c4 -13 8 -18 11 -10 2 7 -1 18 -6 23 -8 8 -9 4 -5 -13z"/>
<path d="M2626 3582 c-3 -5 1 -9 9 -9 8 0 12 4 9 9 -3 4 -7 8 -9 8 -2 0 -6 -4
-9 -8z"/>
<path d="M2556 3567 c3 -10 9 -15 12 -12 3 3 0 11 -7 18 -10 9 -11 8 -5 -6z"/>
<path d="M2655 3561 c-3 -5 -2 -12 3 -15 5 -3 9 1 9 9 0 17 -3 19 -12 6z"/>
<path d="M4126 3555 c-3 -8 -1 -15 4 -15 6 0 10 7 10 15 0 8 -2 15 -4 15 -2 0
-6 -7 -10 -15z"/>
<path d="M2630 3551 c0 -6 4 -13 10 -16 6 -3 7 1 4 9 -7 18 -14 21 -14 7z"/>
<path d="M3774 3544 c-18 -14 -18 -15 4 -4 12 6 22 13 22 15 0 8 -5 6 -26 -11z"/>
<path d="M3830 3539 c0 -5 6 -9 13 -9 8 0 7 -4 -3 -10 -8 -5 -10 -10 -4 -10
11 0 41 29 33 31 -31 6 -39 6 -39 -2z"/>
<path d="M4286 3527 c3 -10 9 -15 12 -12 3 3 0 11 -7 18 -10 9 -11 8 -5 -6z"/>
<path d="M3400 3519 c0 -5 5 -7 10 -4 6 3 10 8 10 11 0 2 -4 4 -10 4 -5 0 -10
-5 -10 -11z"/>
<path d="M4263 3515 c0 -8 4 -12 9 -9 5 3 6 10 3 15 -9 13 -12 11 -12 -6z"/>
<path d="M0 3388 l0 -135 30 -34 c16 -19 30 -38 30 -44 1 -14 43 -60 62 -67
16 -7 20 14 5 28 -4 4 -1 14 6 22 10 13 9 14 -2 7 -11 -6 -12 -5 -5 6 11 19
14 40 4 34 -4 -3 -10 8 -12 25 -2 16 -1 27 4 24 4 -3 8 -13 8 -22 0 -14 2 -15
10 -2 6 9 5 20 -3 29 -10 12 -9 13 2 6 11 -6 13 -4 8 9 -4 10 -3 15 3 11 5 -3
7 -21 6 -40 -2 -19 0 -32 5 -29 5 3 7 9 4 14 -3 5 -1 11 4 15 7 4 7 15 0 32
-5 14 -7 28 -4 31 10 10 35 11 29 1 -3 -5 -10 -7 -15 -4 -14 9 -11 -9 6 -31
14 -18 14 -18 8 3 -3 16 0 25 11 29 15 6 15 8 -1 20 -17 13 -17 13 2 14 l20 1
-20 9 c-19 8 -19 9 0 9 15 1 16 4 7 13 -7 7 -12 17 -12 22 0 6 5 4 10 -4 8
-13 10 -12 10 3 0 9 -4 17 -8 17 -5 0 -9 7 -9 14 0 8 5 14 11 13 6 -1 12 12
13 28 1 17 -1 22 -3 13 -3 -10 -13 -18 -22 -18 -14 0 -14 2 -3 9 11 7 10 11
-5 20 -13 7 -14 10 -5 11 8 0 12 2 9 5 -2 3 -48 8 -101 11 l-97 6 0 -134z
m107 -168 c-1 -10 -5 -17 -9 -14 -4 3 -4 12 -1 21 5 12 3 14 -7 8 -9 -5 -11
-4 -6 4 10 16 25 4 23 -19z"/>
<path d="M4315 3510 c-8 -13 4 -32 15 -25 5 3 11 1 15 -5 10 -16 25 -12 19 5
-4 8 -10 12 -15 9 -5 -3 -9 2 -9 10 0 18 -16 21 -25 6z"/>
<path d="M4633 3485 c0 -22 2 -30 4 -17 2 12 2 30 0 40 -3 9 -5 -1 -4 -23z"/>
<path d="M4805 3473 c-27 -19 -71 -53 -98 -75 -26 -22 -68 -47 -95 -56 -36
-13 -42 -17 -24 -20 17 -3 22 -10 22 -36 0 -17 -6 -38 -12 -45 -11 -11 -10
-12 2 -5 22 12 40 14 40 3 0 -6 4 -7 10 -4 6 3 7 -1 3 -10 -4 -12 -8 -13 -13
-5 -10 17 -17 1 -18 -43 -1 -21 3 -35 8 -32 5 3 11 1 14 -4 4 -5 2 -12 -3 -16
-12 -7 -3 -35 11 -35 5 0 6 5 2 12 -5 7 -3 8 5 3 9 -5 10 -10 2 -18 -16 -16
-13 -27 5 -20 14 5 15 3 5 -15 -9 -18 -8 -23 8 -31 19 -10 22 -33 8 -47 -10
-11 -8 -24 4 -24 5 0 7 5 3 12 -5 7 -3 8 5 4 7 -5 10 -14 7 -22 -4 -11 -1 -12
13 -5 10 6 22 7 26 3 5 -4 5 -2 1 5 -3 6 -2 14 3 17 5 3 11 -3 14 -13 3 -12
-1 -22 -10 -25 -13 -5 -12 -8 1 -22 9 -8 21 -12 27 -8 7 4 10 1 7 -7 -3 -8
-11 -13 -17 -12 -6 2 -10 -8 -9 -21 2 -18 7 -23 25 -21 14 1 23 -3 23 -12 0
-8 -4 -11 -10 -8 -5 3 -10 -1 -10 -10 0 -12 -5 -15 -17 -10 -14 5 -15 4 -6 -6
10 -10 17 -8 36 9 13 12 26 20 29 17 3 -3 16 12 30 33 14 21 78 108 142 192
l116 154 0 158 0 158 -132 -1 -133 0 -50 -36z m-100 -423 c3 -5 1 -10 -4 -10
-6 0 -11 5 -11 10 0 6 2 10 4 10 3 0 8 -4 11 -10z m26 -67 c13 -16 12 -17 -3
-4 -10 7 -18 15 -18 17 0 8 8 3 21 -13z m63 -128 c-4 -8 -11 -12 -16 -9 -6 4
-5 10 3 15 19 12 19 11 13 -6z m37 -18 c-10 -9 -11 -8 -5 6 3 10 9 15 12 12 3
-3 0 -11 -7 -18z"/>
<path d="M243 3485 c-3 -9 -3 -19 1 -22 3 -4 6 1 6 10 0 8 6 18 13 20 9 4 9 6
-1 6 -7 1 -15 -6 -19 -14z"/>
<path d="M3781 3488 c-1 -22 11 -29 29 -17 13 7 12 9 -2 9 -9 0 -19 6 -21 13
-3 7 -6 6 -6 -5z"/>
<path d="M3904 3491 c4 -5 0 -12 -6 -14 -10 -4 -10 -6 0 -6 8 -1 10 -6 6 -13
-4 -7 1 -6 11 4 17 16 14 38 -6 38 -6 0 -8 -4 -5 -9z"/>
<path d="M4145 3490 c3 -5 8 -10 11 -10 2 0 4 5 4 10 0 6 -5 10 -11 10 -5 0
-7 -4 -4 -10z"/>
<path d="M4040 3486 c0 -3 9 -10 20 -16 11 -6 20 -8 20 -6 0 3 -9 10 -20 16
-11 6 -20 8 -20 6z"/>
<path d="M4524 3462 c-17 -15 -33 -36 -37 -47 -7 -19 -6 -19 7 -2 7 9 18 17
25 17 6 0 11 6 12 13 1 6 4 1 8 -13 7 -23 8 -22 15 14 4 21 6 40 4 41 -2 2
-17 -8 -34 -23z"/>
<path d="M4286 3472 c-3 -5 1 -9 9 -9 8 0 12 4 9 9 -3 4 -7 8 -9 8 -2 0 -6 -4
-9 -8z"/>
<path d="M4515 3319 c-16 -6 -14 -8 13 -8 33 -1 41 4 20 12 -7 2 -22 1 -33 -4z"/>
<path d="M2488 3213 c61 -2 163 -2 225 0 61 1 11 3 -113 3 -124 0 -174 -2
-112 -3z"/>
<path d="M2848 3213 c7 -3 16 -2 19 1 4 3 -2 6 -13 5 -11 0 -14 -3 -6 -6z"/>
<path d="M4595 3159 c-4 -6 -5 -12 -2 -15 2 -3 7 2 10 11 7 17 1 20 -8 4z"/>
<path d="M4620 3130 c-9 -6 -10 -10 -3 -10 6 0 15 5 18 10 8 12 4 12 -15 0z"/>
<path d="M4610 3099 c0 -5 5 -7 10 -4 6 3 10 8 10 11 0 2 -4 4 -10 4 -5 0 -10
-5 -10 -11z"/>
<path d="M4715 2920 c-8 -14 9 -34 23 -29 7 3 6 11 -3 22 -9 13 -15 15 -20 7z"/>
<path d="M4799 2773 c-13 -16 -12 -17 4 -4 16 13 21 21 13 21 -2 0 -10 -8 -17
-17z"/>
<path d="M4533 2715 c0 -33 2 -45 4 -27 2 18 2 45 0 60 -2 15 -4 0 -4 -33z"/>
<path d="M5030 2452 c-108 -62 -199 -117 -225 -135 -13 -10 18 -5 95 14 63 16
137 32 163 35 27 4 51 12 53 19 3 7 4 35 2 64 l-3 51 -85 -48z"/>
<path d="M10 2461 c0 -6 4 -13 10 -16 6 -3 7 1 4 9 -7 18 -14 21 -14 7z"/>
<path d="M36 2433 c-6 -14 -5 -15 5 -6 7 7 10 15 7 18 -3 3 -9 -2 -12 -12z"/>
<path d="M4560 2415 c-6 -8 -10 -19 -8 -26 2 -6 9 0 16 15 13 29 10 33 -8 11z"/>
<path d="M4837 2193 c-11 -10 42 -33 71 -29 27 3 27 2 26 -53 l-2 -56 7 50 6
50 50 7 c28 4 67 8 88 10 22 1 37 7 37 15 0 10 -31 13 -138 13 -76 0 -142 -3
-145 -7z"/>
<path d="M130 2185 c0 -2 6 -8 13 -14 10 -8 14 -7 14 2 0 8 -6 14 -14 14 -7 0
-13 -1 -13 -2z"/>
<path d="M193 2175 c0 -8 4 -12 9 -9 5 3 6 10 3 15 -9 13 -12 11 -12 -6z"/>
<path d="M4695 1859 c-4 -6 -5 -12 -2 -15 2 -3 7 2 10 11 7 17 1 20 -8 4z"/>
<path d="M4676 1815 c-9 -26 -7 -32 5 -12 6 10 9 21 6 23 -2 3 -7 -2 -11 -11z"/>
<path d="M5081 1722 c-49 -107 -82 -210 -68 -215 7 -2 20 1 30 7 14 9 21 7 31
-6 17 -23 30 -23 22 -2 -4 9 1 28 10 42 11 17 12 22 3 16 -11 -6 -12 -5 -3 7
11 13 21 219 11 219 -2 0 -18 -31 -36 -68z"/>
<path d="M4880 1490 c0 -5 5 -10 10 -10 6 0 10 5 10 10 0 6 -4 10 -10 10 -5 0
-10 -4 -10 -10z"/>
<path d="M4995 1468 c1 -12 7 -24 14 -26 8 -3 12 4 9 19 -4 29 -25 36 -23 7z"/>
<path d="M5043 1160 c-18 -11 -33 -25 -33 -30 0 -6 -4 -9 -9 -5 -10 6 -25 -30
-18 -42 3 -5 -23 -7 -57 -6 -65 1 -85 -7 -105 -45 -11 -20 -10 -26 6 -38 10
-7 25 -14 33 -14 12 -1 12 -3 -2 -13 -14 -9 -3 -16 69 -39 47 -15 91 -32 97
-38 7 -5 15 -7 18 -5 3 3 13 -6 22 -19 9 -14 24 -30 35 -35 17 -10 19 -5 20
80 l2 91 -40 -31 c-22 -18 -43 -41 -46 -52 -5 -15 -10 -18 -18 -10 -8 8 -2 23
20 55 29 41 30 45 13 51 -10 3 -23 20 -29 37 -10 27 -8 35 11 55 12 13 36 28
55 35 18 7 33 18 33 25 0 19 -40 16 -77 -7z m-199 -145 c3 -8 1 -15 -4 -15 -6
0 -10 7 -10 15 0 8 2 15 4 15 2 0 6 -7 10 -15z m96 -11 c0 -8 -19 -13 -24 -6
-3 5 1 9 9 9 8 0 15 -2 15 -3z"/>
<path d="M140 1129 c0 -5 5 -7 10 -4 6 3 10 8 10 11 0 2 -4 4 -10 4 -5 0 -10
-5 -10 -11z"/>
<path d="M110 1090 c0 -5 5 -10 11 -10 5 0 7 5 4 10 -3 6 -8 10 -11 10 -2 0
-4 -4 -4 -10z"/>
<path d="M0 1080 c0 -5 5 -10 10 -10 6 0 10 5 10 10 0 6 -4 10 -10 10 -5 0
-10 -4 -10 -10z"/>
<path d="M244 1040 c0 -13 4 -16 10 -10 7 7 7 13 0 20 -6 6 -10 3 -10 -10z"/>
<path d="M23 1043 c-22 -4 -23 -9 -23 -108 l0 -104 61 -47 c82 -63 109 -119
109 -227 0 -75 2 -81 35 -122 54 -66 71 -151 40 -205 -20 -35 -18 -42 8 -27
12 8 41 20 65 27 85 27 111 117 72 254 -24 86 -22 110 11 194 l22 53 -24 25
c-57 62 -129 68 -216 20 -52 -30 -47 -15 7 19 44 28 44 47 2 103 -22 28 -30
32 -76 33 l-51 2 48 10 c55 12 61 32 16 51 -20 8 -27 16 -20 21 9 5 9 10 0 21
-11 14 -40 16 -86 7z"/>
<path d="M177 1005 c3 -22 11 -46 19 -54 10 -11 11 -8 5 21 -5 19 -13 43 -19
54 -9 15 -10 11 -5 -21z"/>
<path d="M215 1031 c-3 -5 -2 -12 3 -15 5 -3 9 1 9 9 0 17 -3 19 -12 6z"/>
<path d="M280 1026 c0 -9 -4 -16 -10 -16 -5 0 -10 -4 -10 -9 0 -5 11 -4 25 2
25 12 28 28 7 35 -7 2 -12 -3 -12 -12z"/>
<path d="M600 1022 c6 -13 14 -21 18 -18 3 4 -2 14 -12 24 -18 16 -18 16 -6
-6z"/>
<path d="M540 1021 c0 -5 7 -12 16 -15 14 -5 15 -4 4 9 -14 17 -20 19 -20 6z"/>
<path d="M517 996 c-4 -10 -12 -14 -19 -10 -9 6 -9 3 1 -9 7 -9 18 -14 24 -10
5 3 7 1 4 -5 -10 -15 3 -42 19 -42 8 0 14 5 14 11 0 5 -4 8 -9 5 -13 -8 -21
18 -10 35 11 18 11 32 0 25 -5 -4 -11 -1 -13 6 -3 7 -7 5 -11 -6z"/>
<path d="M4663 980 c-29 -17 -31 -23 -28 -59 4 -40 -2 -50 -20 -32 -6 5 -28
12 -50 16 -28 5 -36 4 -25 -4 8 -5 18 -7 22 -5 4 3 8 1 8 -4 0 -15 -30 -23
-30 -9 0 7 -7 3 -15 -7 -8 -11 -15 -14 -15 -8 0 21 -28 13 -50 -15 -14 -18
-20 -38 -18 -58 3 -29 3 -30 -42 -30 -57 -1 -98 -21 -127 -64 -27 -40 -29 -51
-8 -51 8 0 21 12 29 28 l14 27 7 -27 c4 -16 11 -28 16 -28 5 0 6 -7 3 -15 -4
-8 -11 -12 -18 -8 -6 3 1 -5 17 -20 31 -30 36 -53 10 -42 -99 40 -99 40 -157
22 -88 -28 -130 -93 -143 -222 -9 -90 58 -203 144 -241 18 -8 36 -13 40 -12 5
2 8 -2 8 -7 0 -6 -6 -9 -13 -7 -8 2 -11 -1 -8 -6 3 -6 -2 -8 -12 -5 -10 2 -26
-5 -37 -17 l-19 -21 -36 43 -37 42 -16 -30 c-8 -16 -18 -46 -22 -67 l-7 -37
186 0 c208 0 195 -6 176 75 -8 36 -7 38 6 21 12 -17 20 -61 15 -88 0 -5 10 -8
24 -8 l24 0 -19 33 c-42 72 -60 151 -60 269 -1 161 -1 169 7 213 4 22 6 49 4
60 -1 15 0 17 7 6 8 -11 12 -9 22 8 6 12 31 35 55 50 25 16 43 30 41 32 -9 9
149 12 174 4 21 -7 21 -6 7 17 -10 14 -17 56 -20 110 l-4 86 23 -8 c15 -6 26
-5 30 2 5 7 3 8 -6 3 -8 -5 -11 -4 -6 3 4 6 12 9 19 7 7 -3 23 4 36 14 20 15
23 24 17 55 -7 35 -8 36 -49 36 -24 0 -56 -8 -74 -20z m95 -34 c-7 -8 -15 -12
-17 -11 -5 6 10 25 20 25 5 0 4 -6 -3 -14z m-105 -11 c-3 -9 -8 -14 -10 -11
-3 3 -2 9 2 15 9 16 15 13 8 -4z m-309 -210 c-4 -8 -13 -15 -20 -15 -12 0 -12
3 -2 15 17 19 29 19 22 0z m25 -470 c-1 -52 -5 -92 -9 -90 -5 3 -6 15 -2 27 4
16 2 19 -9 13 -11 -6 -11 -5 -2 5 9 9 9 19 2 33 -8 14 -8 18 1 12 7 -4 11 -1
9 6 -3 27 1 89 6 89 4 0 5 -43 4 -95z m-322 -237 c-3 -8 -6 -5 -6 6 -1 11 2
17 5 13 3 -3 4 -12 1 -19z"/>
<path d="M285 983 c-24 -6 -46 -34 -40 -50 2 -6 0 -13 -5 -15 -5 -2 -7 -20 -3
-40 l6 -38 51 6 c60 6 109 -18 128 -63 17 -39 16 -39 41 -16 26 25 107 49 195
58 34 4 62 11 62 16 0 17 -47 58 -75 65 -43 11 -104 -14 -156 -63 -27 -25 -49
-41 -49 -36 0 5 14 22 30 38 17 16 30 36 30 45 0 18 -52 71 -87 89 -22 11 -91
13 -128 4z m-7 -88 c1 -14 -2 -25 -6 -25 -7 0 -8 31 -3 48 3 8 7 -2 9 -23z
m185 -9 c11 1 16 0 13 -4 -13 -12 -36 -10 -48 6 -11 15 -11 15 2 6 8 -6 23
-10 33 -8z m-10 -29 c4 3 7 4 7 1 0 -3 -8 -12 -17 -19 -10 -7 -15 -9 -11 -5 4
5 2 16 -5 25 -10 14 -10 14 4 4 9 -7 19 -10 22 -6z"/>
<path d="M593 943 c-13 -2 -23 -8 -23 -12 0 -5 11 -6 25 -3 14 2 25 8 25 13 0
5 -1 8 -2 8 -2 -1 -13 -4 -25 -6z"/>
<path d="M4280 946 c0 -2 9 -6 20 -9 11 -3 18 -1 14 4 -5 9 -34 13 -34 5z"/>
<path d="M670 930 c0 -6 7 -10 15 -10 8 0 15 2 15 4 0 2 -7 6 -15 10 -8 3 -15
1 -15 -4z"/>
<path d="M710 916 c0 -2 8 -10 18 -17 15 -13 16 -12 3 4 -13 16 -21 21 -21 13z"/>
<path d="M4812 879 c-49 -25 -78 -58 -91 -105 -18 -64 11 -116 97 -176 l42
-29 0 24 c0 32 52 102 89 122 36 18 83 19 134 1 l38 -14 -3 51 -3 51 -85 43
c-107 54 -159 62 -218 32z"/>
<path d="M788 860 c-25 -34 -35 -37 -41 -12 -3 10 -5 6 -6 -11 -1 -23 4 -29
32 -34 17 -4 36 -6 40 -5 5 1 6 -2 3 -7 -3 -5 1 -38 10 -72 11 -41 14 -84 11
-122 -5 -53 -4 -57 9 -39 8 11 43 30 78 42 62 20 64 22 75 65 26 102 5 152
-76 179 -60 21 -64 20 -107 -9 -46 -31 -66 -32 -40 -2 32 36 47 57 41 57 -4 0
-16 -13 -29 -30z"/>
<path d="M985 860 c10 -11 20 -20 23 -20 3 0 -3 9 -13 20 -10 11 -20 20 -23
20 -3 0 3 -9 13 -20z"/>
<path d="M4291 822 c-38 -19 -66 -53 -76 -92 -6 -22 -4 -22 15 7 23 35 71 61
132 71 23 4 43 13 46 20 6 19 -77 15 -117 -6z"/>
<path d="M1020 810 c0 -8 5 -22 10 -30 9 -13 10 -13 10 0 0 8 -5 22 -10 30 -9
13 -10 13 -10 0z"/>
<path d="M1113 794 c-46 -22 -54 -31 -71 -77 -21 -55 -19 -76 4 -56 10 8 14 8
15 0 3 -21 4 -26 13 -40 7 -10 5 -12 -5 -6 -8 4 5 -10 28 -31 51 -46 97 -132
113 -209 l11 -55 29 20 c45 32 70 70 69 104 l-1 31 -8 -32 c-4 -18 -13 -40
-21 -49 -12 -15 -15 -13 -36 12 -13 16 -21 21 -17 12 4 -11 1 -18 -6 -18 -6 0
-8 5 -5 10 3 6 0 10 -7 10 -10 0 -9 3 2 9 8 6 17 8 21 6 7 -5 59 57 78 94 7
13 15 58 18 100 5 65 2 83 -16 119 -38 75 -114 92 -208 46z"/>
<path d="M537 790 c-77 -23 -147 -121 -147 -205 0 -22 11 -89 25 -149 l24
-109 -19 -38 c-11 -21 -46 -67 -79 -101 -32 -35 -65 -76 -74 -93 -9 -16 -16
-24 -17 -17 0 17 37 89 50 97 5 3 10 10 10 16 0 17 -22 9 -51 -20 -27 -27 -29
-35 -29 -100 l0 -71 123 0 124 0 12 68 c7 37 21 86 31 108 23 54 84 121 132
145 21 11 38 26 38 33 0 16 21 26 53 26 19 0 25 12 45 83 12 45 22 96 22 114
0 76 -69 192 -127 214 -29 11 -107 10 -146 -1z"/>
<path d="M4196 765 c-3 -9 -6 -24 -5 -33 0 -9 5 -4 10 12 9 32 6 48 -5 21z"/>
<path d="M0 620 l0 -109 38 -10 c20 -6 44 -11 53 -11 8 0 20 -5 27 -12 9 -9
12 1 14 47 3 122 -7 150 -65 185 -63 39 -67 33 -67 -90z"/>
<path d="M1678 723 c6 -2 18 -2 25 0 6 3 1 5 -13 5 -14 0 -19 -2 -12 -5z"/>
<path d="M2493 670 c0 -36 2 -50 4 -32 2 17 2 47 0 65 -2 17 -4 3 -4 -33z"/>
<path d="M1483 691 c-22 -18 -32 -61 -15 -61 4 0 17 18 29 40 23 44 20 49 -14
21z"/>
<path d="M2175 690 c-3 -6 1 -7 9 -4 18 7 21 14 7 14 -6 0 -13 -4 -16 -10z"/>
<path d="M2463 660 c0 -25 2 -35 4 -22 2 12 2 32 0 45 -2 12 -4 2 -4 -23z"/>
<path d="M3903 665 c0 -22 2 -30 4 -17 2 12 2 30 0 40 -3 9 -5 -1 -4 -23z"/>
<path d="M4960 683 c-39 -27 -59 -55 -66 -92 -6 -28 0 -48 29 -105 19 -39 38
-88 41 -108 5 -24 16 -44 34 -57 30 -21 23 -42 -8 -23 -11 7 -21 12 -24 12 -2
0 -6 -37 -10 -82 -3 -46 -9 -116 -12 -155 l-5 -73 90 0 91 0 0 344 0 344 -22
6 c-45 12 -113 6 -138 -11z"/>
<path d="M4140 680 c0 -8 -20 -23 -45 -34 -25 -10 -56 -32 -69 -50 -40 -54
-40 -63 -1 -17 40 45 102 80 143 81 13 0 20 4 17 10 -4 6 -11 7 -17 4 -6 -4
-14 0 -19 7 -7 12 -9 11 -9 -1z"/>
<path d="M1385 670 c3 -5 12 -7 20 -3 21 7 19 13 -6 13 -11 0 -18 -4 -14 -10z"/>
<path d="M1370 628 c0 -23 3 -29 9 -19 8 12 4 51 -5 51 -2 0 -4 -15 -4 -32z"/>
<path d="M1488 603 c-25 -57 -21 -116 16 -236 13 -45 28 -95 32 -112 7 -27 8
-28 11 -8 3 13 11 23 19 23 9 0 12 -5 8 -11 -4 -7 1 -10 11 -7 10 1 20 10 22
18 4 13 3 13 -6 0 -7 -9 -11 -10 -11 -3 0 6 5 15 10 18 14 9 12 26 -2 22 -7
-1 -13 8 -14 20 -1 15 3 20 13 16 12 -5 12 -7 1 -15 -9 -7 -4 -8 15 -3 21 4
27 3 21 -6 -4 -8 -3 -9 4 -5 6 4 9 13 6 21 -3 7 4 18 15 25 11 6 20 14 19 18
-1 4 4 17 11 30 10 19 15 21 27 11 8 -6 14 -26 14 -43 1 -26 2 -28 11 -13 6 9
9 25 7 35 -1 9 1 23 6 31 6 9 5 12 -2 7 -6 -3 -13 -2 -17 3 -3 6 -13 7 -22 4
-11 -4 -14 -3 -9 5 4 7 14 12 22 12 16 0 19 26 4 35 -6 4 -7 -1 -3 -12 6 -16
5 -16 -11 -4 -15 12 -17 12 -14 0 2 -8 -3 -13 -10 -11 -8 1 -11 -2 -8 -7 4 -5
2 -12 -4 -16 -6 -4 -7 -12 -3 -18 5 -9 3 -9 -8 0 -12 10 -18 10 -28 0 -10 -9
-10 -7 0 10 9 16 16 19 21 10 8 -13 11 -3 8 27 -1 11 3 15 9 12 7 -5 8 -1 4
10 -4 11 -8 13 -11 6 -2 -7 -8 -12 -13 -12 -6 0 -8 4 -5 8 2 4 -4 8 -15 8 -19
0 -18 -1 3 -18 13 -11 16 -16 7 -12 -10 3 -20 0 -24 -5 -8 -13 -25 -5 -25 12
0 7 4 6 10 -3 6 -9 10 -10 10 -3 0 6 -4 14 -9 18 -5 3 -8 18 -6 35 4 28 3 28
-16 12 -21 -18 -24 -23 -10 -20 9 3 11 -1 11 -29 0 -13 -6 -9 -20 12 -19 28
-20 29 -20 7 0 -15 4 -21 12 -16 7 5 8 3 3 -6 -6 -10 -11 -9 -23 6 -13 18 -14
17 -8 -9 5 -19 2 -29 -8 -33 -8 -3 -12 -13 -9 -25 3 -10 10 -16 16 -12 6 3 7
1 3 -5 -6 -10 -35 -17 -37 -9 -8 27 -12 157 -5 157 5 0 7 3 3 6 -3 3 1 23 8
45 19 54 8 49 -17 -8z m99 -155 c-3 -8 -6 -5 -6 6 -1 11 2 17 5 13 3 -3 4 -12
1 -19z m70 -43 c0 -18 -24 -28 -33 -13 -4 6 -3 8 3 5 6 -4 13 0 17 8 7 19 13
19 13 0z m-44 -34 c14 -28 14 -29 -3 -19 -10 7 -18 20 -17 30 2 24 3 23 20
-11z m-38 -81 c-3 -5 -13 -6 -21 -3 -12 4 -13 8 -3 14 15 9 32 2 24 -11z"/>
<path d="M3851 640 c0 -8 4 -24 9 -35 5 -13 9 -14 9 -5 0 8 -4 24 -9 35 -5 13
-9 14 -9 5z"/>
<path d="M4542 613 c-58 -28 -77 -67 -78 -158 -2 -107 -1 -105 -24 -105 -31 0
-39 -28 -30 -116 7 -65 17 -98 47 -158 l38 -76 180 0 180 0 38 78 c107 224 58
445 -118 528 -62 29 -181 33 -233 7z"/>
<path d="M2049 596 c-81 -33 -123 -61 -168 -112 -108 -123 -128 -278 -53 -417
l36 -67 247 0 246 0 22 52 c45 108 47 284 5 411 -44 134 -192 192 -335 133z"/>
<path d="M3913 555 c0 -38 2 -53 4 -32 2 20 2 52 0 70 -2 17 -4 1 -4 -38z"/>
<path d="M1406 596 c4 -9 1 -16 -6 -16 -9 0 -9 -4 1 -17 10 -11 10 -14 2 -9
-14 8 -15 -5 -4 -44 4 -14 4 -35 0 -47 -5 -13 -4 -25 1 -28 13 -8 13 -52 0
-60 -6 -3 -10 4 -10 17 0 17 -3 19 -9 9 -7 -11 -10 -10 -14 5 -4 16 -5 16 -6
-3 -1 -30 -32 -67 -43 -51 -5 9 -14 5 -33 -12 -39 -37 -47 -57 -40 -100 6 -37
8 -38 33 -29 41 16 155 13 190 -5 39 -20 107 -102 131 -159 l20 -46 52 1 c48
1 57 5 90 40 34 36 35 39 22 66 -8 15 -17 59 -20 99 -3 40 -10 70 -14 67 -5
-3 -9 -15 -10 -27 0 -16 -2 -18 -7 -7 -4 8 -16 14 -27 14 -42 -3 -85 -17 -85
-28 0 -6 -4 -5 -9 3 -6 9 -18 11 -35 7 -15 -4 -24 -11 -21 -16 3 -5 -7 -3 -22
5 -23 12 -27 20 -25 46 2 18 -4 49 -14 70 -14 33 -19 37 -32 26 -13 -10 -15
-9 -9 7 10 25 -3 197 -14 190 -5 -3 -9 1 -9 9 0 8 -7 20 -15 27 -13 11 -14 10
-9 -4z m39 -136 c3 -5 1 -10 -4 -10 -6 0 -11 5 -11 10 0 6 2 10 4 10 3 0 8 -4
11 -10z m5 -30 c0 -5 -4 -10 -10 -10 -5 0 -10 5 -10 10 0 6 5 10 10 10 6 0 10
-4 10 -10z m-13 -192 c-3 -8 -6 -5 -6 6 -1 11 2 17 5 13 3 -3 4 -12 1 -19z
m310 -65 c-3 -10 -5 -2 -5 17 0 19 2 27 5 18 2 -10 2 -26 0 -35z m19 -88 c-3
-9 -10 -14 -15 -11 -10 7 -43 -28 -36 -37 3 -4 2 -5 -2 -2 -3 3 -11 0 -18 -5
-8 -7 -12 -5 -12 5 0 8 3 12 7 10 4 -2 22 11 40 30 34 35 47 39 36 10z"/>
<path d="M3101 558 c-7 -29 -14 -63 -15 -75 0 -11 -5 -19 -9 -16 -4 2 -5 -7
-1 -21 7 -29 -6 -33 -50 -16 -27 10 -40 2 -86 -55 -19 -23 -16 -22 16 8 l41
38 69 -11 c112 -19 175 -74 190 -168 l6 -41 31 15 c33 18 116 22 191 10 l49
-8 -6 62 c-9 77 -22 105 -30 62 -6 -29 -30 -47 -49 -36 -5 3 -7 13 -4 21 3 8
2 11 -3 8 -5 -3 -12 -1 -16 5 -4 6 -11 8 -16 4 -5 -3 -7 -9 -4 -14 6 -10 -40
-41 -49 -33 -3 4 -6 11 -6 17 0 6 5 4 11 -4 9 -13 10 -13 8 0 -3 28 1 41 10
36 5 -3 15 2 22 12 13 16 13 16 -5 2 -11 -8 -20 -13 -22 -10 -2 3 -12 -5 -23
-16 -11 -12 -17 -25 -14 -28 4 -3 -1 -6 -11 -6 -10 0 -14 -5 -10 -12 4 -7 3
-8 -4 -4 -7 4 -12 13 -12 21 0 9 -9 12 -28 10 -25 -3 -34 4 -66 46 -20 27 -44
49 -54 49 -12 0 -14 2 -4 8 10 7 9 17 -3 53 -9 24 -19 66 -23 92 l-7 49 -14
-54z m206 -313 c-15 -16 -19 -13 -11 9 3 9 10 13 15 10 5 -3 3 -11 -4 -19z"/>
<path d="M3483 555 c0 -27 2 -38 4 -22 2 15 2 37 0 50 -2 12 -4 0 -4 -28z"/>
<path d="M1848 558 c-2 -13 -9 -22 -15 -21 -7 2 -10 -4 -7 -11 9 -22 43 11 37
35 -7 25 -11 24 -15 -3z"/>
<path d="M2497 574 c-4 -4 -7 -14 -7 -23 0 -11 3 -12 11 -4 6 6 10 16 7 23 -2
6 -7 8 -11 4z"/>
<path d="M3872 528 c-2 -46 -6 -60 -24 -74 -15 -10 -17 -14 -6 -11 15 5 17 1
13 -26 -4 -25 -1 -22 10 13 9 26 14 68 12 100 l-3 55 -2 -57z"/>
<path d="M865 536 c-15 -20 -25 -42 -22 -50 4 -10 1 -13 -7 -10 -9 4 -19 -11
-30 -42 -9 -26 -16 -51 -16 -54 0 -4 18 -12 40 -19 80 -24 141 -107 160 -220
l8 -46 2 40 c2 39 2 39 12 12 5 -15 14 -25 19 -21 5 3 12 -9 16 -26 3 -20 9
-27 13 -19 5 8 10 4 15 -11 6 -18 9 -20 16 -9 5 8 9 23 9 34 0 14 -3 16 -9 7
-6 -10 -11 -9 -22 4 -10 12 -10 15 -1 10 16 -10 75 52 68 71 -3 8 -2 11 4 8
16 -10 41 96 34 144 -8 52 -73 152 -127 195 -29 23 -50 31 -96 34 -57 4 -59 3
-86 -32z m155 0 c0 -3 -4 -8 -10 -11 -5 -3 -10 -1 -10 4 0 6 5 11 10 11 6 0
10 -2 10 -4z m30 -32 c0 -8 -4 -14 -8 -14 -4 0 -8 9 -8 19 0 11 4 17 8 15 4
-3 8 -12 8 -20z m44 -45 c-8 -14 -30 1 -31 22 -2 20 -1 20 17 4 11 -10 17 -21
14 -26z m-121 -13 c4 -10 1 -13 -8 -9 -8 3 -12 9 -9 14 7 12 11 11 17 -5z
m145 -21 c-3 -3 -9 2 -12 12 -6 14 -5 15 5 6 7 -7 10 -15 7 -18z m43 -146
l-10 -34 4 35 c4 45 4 44 11 38 3 -3 1 -21 -5 -39z"/>
<path d="M1362 510 c0 -19 2 -27 5 -17 2 9 2 25 0 35 -3 9 -5 1 -5 -18z"/>
<path d="M3848 507 c-3 -19 -2 -25 4 -19 6 6 8 18 6 28 -3 14 -5 12 -10 -9z"/>
<path d="M2463 423 c1 -57 5 -103 9 -103 14 0 13 17 -1 130 l-9 75 1 -102z"/>
<path d="M2596 508 c3 -5 10 -6 15 -3 13 9 11 12 -6 12 -8 0 -12 -4 -9 -9z"/>
<path d="M2539 509 c-6 -31 -6 -38 1 -34 9 6 24 -13 25 -30 2 -17 -27 -45 -39
-38 -8 4 -8 3 0 -6 9 -9 21 -5 55 17 24 17 60 35 79 40 35 10 34 10 -18 11
-36 1 -51 -3 -47 -10 4 -6 -2 -5 -13 2 -12 7 -19 16 -16 20 2 4 -3 12 -11 19
-8 7 -15 11 -16 9z"/>
<path d="M3046 495 c-3 -9 -11 -13 -17 -9 -8 4 -9 3 -5 -4 4 -7 2 -12 -4 -12
-6 0 -8 -4 -5 -10 3 -5 10 -10 14 -10 9 0 34 51 28 57 -3 2 -7 -3 -11 -12z"/>
<path d="M2490 485 c0 -8 4 -15 8 -15 5 0 9 7 9 15 0 8 -4 15 -9 15 -4 0 -8
-7 -8 -15z"/>
<path d="M3492 485 c0 -11 3 -29 8 -40 11 -25 11 1 0 35 -6 20 -8 21 -8 5z"/>
<path d="M3534 438 c6 -75 28 -128 57 -135 23 -6 23 -11 5 -53 -10 -25 -14
-29 -20 -15 -3 9 -6 25 -6 35 0 10 -4 22 -10 25 -6 4 -10 -13 -10 -42 0 -44 3
-50 33 -68 17 -11 36 -18 40 -17 5 1 6 -2 2 -8 -9 -14 56 -92 72 -86 7 3 15 1
18 -3 3 -5 -2 -11 -10 -15 -8 -3 -15 -16 -15 -28 0 -17 -8 -9 -31 32 -16 30
-39 64 -50 76 -65 69 -238 90 -323 40 -58 -34 -93 -80 -102 -134 l-7 -42 347
0 346 0 6 26 7 25 26 -25 c33 -31 75 -36 66 -7 -7 24 4 53 18 44 6 -4 8 2 5
15 -4 12 -2 20 3 16 5 -3 9 1 9 9 0 8 9 26 20 40 l21 26 -30 60 c-17 32 -35
90 -41 127 -13 80 -20 92 -21 38 l-1 -39 -8 38 c-4 21 -13 43 -20 50 -10 10
-10 7 0 -11 10 -21 10 -23 -7 -20 -10 2 -17 11 -15 19 5 31 -25 -21 -42 -73
l-19 -54 29 -89 c15 -50 40 -106 55 -125 30 -39 44 -81 25 -74 -15 6 -35 46
-92 187 -25 60 -42 112 -39 117 3 6 -1 7 -9 4 -12 -4 -13 -12 -5 -32 8 -24 7
-25 -4 -10 -8 10 -18 14 -22 10 -5 -4 -5 1 -2 10 4 10 3 18 -2 18 -7 0 -31 43
-31 55 0 3 8 -3 18 -12 11 -10 17 -22 14 -27 -3 -5 0 -6 7 -2 6 4 9 12 6 17
-4 5 3 9 14 9 10 0 22 -6 24 -12 4 -10 6 -10 6 0 1 7 -9 16 -22 21 -13 5 -24
17 -24 26 0 9 6 14 14 11 15 -6 18 10 3 19 -7 4 -7 12 0 25 6 10 6 21 2 24 -5
3 -9 0 -10 -7 -4 -43 -19 -70 -35 -60 -7 3 -4 -3 6 -14 23 -26 22 -40 -2 -19
-18 17 -20 17 -39 -2 -10 -10 -25 -18 -34 -16 -10 1 -15 -6 -14 -25 1 -15 6
-25 14 -24 6 2 12 -3 12 -10 0 -9 2 -9 9 1 5 9 8 4 7 -16 -1 -29 -16 -35 -16
-7 0 8 -11 17 -25 21 -14 3 -23 10 -20 14 3 4 -3 11 -13 15 -16 7 -15 8 3 15
17 7 17 9 3 9 -14 1 -16 7 -12 30 4 20 1 30 -10 34 -12 5 -14 2 -6 -17 5 -13
4 -29 -1 -37 -6 -9 -9 -10 -9 -2 0 7 -6 10 -14 7 -8 -3 -17 -1 -20 4 -3 5 2 9
12 8 12 -1 16 6 14 24 -4 45 -10 51 -41 47 -22 -4 -28 -2 -24 8 2 8 0 22 -7
32 -9 14 -10 4 -6 -49z m66 -8 c0 -5 -5 -10 -11 -10 -5 0 -7 5 -4 10 3 6 8 10
11 10 2 0 4 -4 4 -10z m144 -76 c4 -10 2 -13 -6 -8 -8 5 -9 2 -5 -10 4 -10 3
-15 -3 -11 -6 3 -10 2 -10 -3 0 -5 -7 -9 -15 -9 -9 0 -14 7 -12 16 2 9 9 15
15 13 7 -1 15 5 18 13 8 19 10 19 18 -1z m26 -53 c0 -11 -29 -35 -35 -29 -10
9 7 38 21 38 8 0 14 -4 14 -9z m110 -11 c0 -5 -4 -10 -10 -10 -5 0 -10 5 -10
10 0 6 5 10 10 10 6 0 10 -4 10 -10z m-265 -80 c3 -5 1 -10 -4 -10 -6 0 -11 5
-11 10 0 6 2 10 4 10 3 0 8 -4 11 -10z m215 -80 c-7 -16 -9 -33 -6 -39 4 -5 1
-13 -5 -17 -8 -4 -9 -3 -5 4 10 17 -2 15 -32 -7 -15 -10 -38 -24 -52 -30 -24
-12 -24 -11 -5 4 53 42 76 71 92 117 16 44 18 47 21 23 2 -15 -2 -40 -8 -55z"/>
<path d="M1830 475 c-7 -9 -11 -17 -9 -20 3 -2 10 5 17 15 14 24 10 26 -8 5z"/>
<path d="M2834 450 c14 -48 30 -67 41 -49 5 7 4 10 -2 6 -6 -4 -10 4 -10 20 0
15 -6 29 -12 31 -6 2 -11 10 -11 18 0 8 -4 14 -9 14 -5 0 -4 -18 3 -40z"/>
<path d="M3654 479 c-3 -6 1 -17 10 -25 9 -8 11 -9 6 -2 -14 16 -13 31 2 22 7
-4 8 -3 4 4 -9 15 -13 15 -22 1z"/>
<path d="M1332 455 c0 -16 2 -22 5 -12 2 9 2 23 0 30 -3 6 -5 -1 -5 -18z"/>
<path d="M2776 450 c4 -13 14 -31 22 -40 14 -14 15 -13 9 3 -4 10 -7 25 -7 33
0 9 -4 13 -9 10 -5 -4 -12 0 -15 6 -3 7 -3 2 0 -12z"/>
<path d="M2520 456 c0 -2 7 -7 16 -10 8 -3 12 -2 9 4 -6 10 -25 14 -25 6z"/>
<path d="M1777 443 c-4 -3 -7 -13 -7 -22 1 -13 3 -13 11 2 11 19 8 33 -4 20z"/>
<path d="M3471 434 c0 -11 3 -14 6 -6 3 7 2 16 -1 19 -3 4 -6 -2 -5 -13z"/>
<path d="M3632 441 c-11 -7 -11 -9 0 -14 9 -3 15 1 15 9 0 8 -1 14 -1 14 -1 0
-7 -4 -14 -9z"/>
<path d="M3671 421 c-8 -5 -11 -16 -6 -30 3 -12 11 -19 16 -15 6 3 8 13 5 21
-3 8 -1 11 4 8 6 -3 7 1 4 9 -7 19 -5 18 -23 7z"/>
<path d="M0 225 c0 -236 -6 -224 122 -225 l86 0 4 60 c1 33 2 65 0 70 -2 5
-32 -15 -68 -45 -35 -30 -67 -55 -70 -55 -3 0 19 27 49 60 58 62 77 105 77
173 0 42 -21 100 -41 112 -8 5 -10 4 -5 -3 4 -7 1 -12 -8 -12 -9 0 -16 5 -16
10 0 6 -9 10 -20 10 -11 0 -20 7 -20 15 0 8 -6 15 -14 15 -7 0 -28 3 -45 6
l-31 7 0 -198z"/>
<path d="M3227 398 c-15 -12 -15 -15 2 -37 12 -16 21 -20 25 -12 4 6 3 11 -3
11 -5 0 -8 11 -5 25 5 29 4 30 -19 13z"/>
<path d="M3280 400 c-8 -5 -12 -12 -9 -15 4 -3 12 1 19 10 14 17 11 19 -10 5z"/>
<path d="M3354 396 c1 -8 5 -18 8 -22 4 -3 5 1 4 10 -1 8 -5 18 -8 22 -4 3 -5
-1 -4 -10z"/>
<path d="M3452 390 c-18 -29 -15 -38 4 -12 9 13 14 25 12 27 -2 2 -9 -5 -16
-15z"/>
<path d="M1686 391 c-7 -10 22 -37 30 -28 4 3 -1 13 -9 22 -9 8 -18 11 -21 6z"/>
<path d="M1761 384 c0 -11 3 -14 6 -6 3 7 2 16 -1 19 -3 4 -6 -2 -5 -13z"/>
<path d="M2578 369 c-42 -22 -82 -64 -73 -78 4 -7 16 0 31 18 13 16 44 37 69
48 25 10 45 20 45 23 0 12 -41 5 -72 -11z"/>
<path d="M2992 345 c-11 -13 -25 -38 -32 -55 -7 -16 -18 -30 -24 -30 -9 0 -11
-18 -8 -57 2 -32 -3 -91 -11 -131 l-14 -72 122 0 123 0 7 37 c9 50 31 91 68
130 29 31 30 34 18 72 -14 47 -52 96 -92 116 -15 8 -53 15 -83 15 -46 0 -58
-4 -74 -25z"/>
<path d="M1752 340 c0 -14 2 -19 5 -12 2 6 2 18 0 25 -3 6 -5 1 -5 -13z"/>
<path d="M2857 329 c26 -26 35 -31 45 -21 9 9 9 12 -4 12 -8 0 -28 10 -44 22
-28 20 -28 20 3 -13z"/>
<path d="M2615 324 c-46 -17 -81 -47 -102 -89 -21 -40 -22 -150 -1 -198 l17
-37 169 0 169 0 22 56 c23 61 27 127 10 171 -15 42 -68 92 -109 103 -49 14
-128 11 -175 -6z m-52 -58 c-10 -13 -20 -20 -21 -15 -5 12 17 39 30 39 5 0 1
-11 -9 -24z"/>
<path d="M675 309 c-78 -40 -149 -138 -160 -221 -4 -23 -8 -53 -11 -65 l-4
-23 240 0 c132 0 240 2 240 4 0 3 -11 16 -24 31 -15 16 -28 48 -36 88 -16 87
-40 137 -84 175 -45 39 -100 43 -161 11z"/>
<path d="M2441 268 c-1 -36 -8 -101 -16 -144 -8 -43 -13 -79 -11 -81 5 -5 55
112 62 146 4 18 2 37 -5 45 -6 8 -16 33 -20 57 -9 43 -9 43 -10 -23z"/>
<path d="M1190 225 c-13 -42 -28 -78 -32 -81 -4 -3 -8 -10 -8 -17 0 -6 18 7
40 28 32 32 40 46 39 75 -1 76 -14 75 -39 -5z"/>
<path d="M1684 289 c-3 -6 -2 -15 4 -21 11 -11 32 -3 32 14 0 6 -7 5 -17 -3
-15 -12 -16 -12 -10 4 7 19 2 23 -9 6z"/>
<path d="M1646 258 c3 -5 10 -6 15 -3 13 9 11 12 -6 12 -8 0 -12 -4 -9 -9z"/>
<path d="M1302 188 c-81 -14 -137 -63 -167 -147 l-14 -41 199 0 200 0 0 33 c0
32 -49 129 -72 143 -22 14 -101 20 -146 12z"/>
<path d="M1127 103 c-4 -3 -7 -11 -7 -17 0 -6 5 -5 12 2 6 6 9 14 7 17 -3 3
-9 2 -12 -2z"/>
<path d="M2452 61 c-17 -55 -15 -61 18 -61 28 0 30 2 24 28 -9 35 -23 72 -27
72 -2 0 -9 -17 -15 -39z"/>
<path d="M1567 49 c3 -24 7 -46 9 -48 9 -10 3 65 -5 78 -6 10 -8 -1 -4 -30z"/>
<path d="M4892 39 c-22 -38 -22 -39 -3 -39 15 0 22 9 27 35 9 49 3 50 -24 4z"/>
<path d="M1002 40 c0 -14 2 -19 5 -12 2 6 2 18 0 25 -3 6 -5 1 -5 -13z"/>
<path d="M1800 49 c0 -8 7 -24 15 -35 18 -24 19 -7 0 26 -9 16 -14 19 -15 9z"/>
<path d="M1091 14 c0 -11 3 -14 6 -6 3 7 2 16 -1 19 -3 4 -6 -2 -5 -13z"/>
<path d="M3880 10 c0 -5 5 -10 11 -10 5 0 7 5 4 10 -3 6 -8 10 -11 10 -2 0 -4
-4 -4 -10z"/>
</g>
</svg>
